<svg xmlns="http://www.w3.org/2000/svg" width="1024" height="1024" viewBox="0 0 100 100" class="character-artwork w-full h-full" aria-hidden="true" focusable="false"><style>.friend-rest-eyes{display:none}</style><defs><radialGradient id="friend-_R_0_-fur" cx="32%" cy="22%" r="80%"><stop stop-color="#FFFFFF"></stop><stop offset=".56" stop-color="#F7F2E7"></stop><stop offset="1" stop-color="#D4D5C6"></stop></radialGradient><radialGradient id="friend-_R_0_-cream" cx="38%" cy="25%" r="80%"><stop stop-color="#FFFFFF"></stop><stop offset=".6" stop-color="#FFEBD3"></stop><stop offset="1" stop-color="#F7F2E7"></stop></radialGradient><linearGradient id="friend-_R_0_-cloth" x1="0" y1="0" x2=".8" y2="1"><stop stop-color="#ACD5E3"></stop><stop offset="1" stop-color="#78A8BF"></stop></linearGradient><radialGradient id="friend-_R_0_-pink" cx="35%" cy="25%" r="85%"><stop stop-color="#FFE1DD"></stop><stop offset=".5" stop-color="#F3B0BC"></stop><stop offset="1" stop-color="#D7839F"></stop></radialGradient><radialGradient id="friend-_R_0_-blush"><stop stop-color="#EF99AB" stop-opacity=".75"></stop><stop offset="1" stop-color="#EF99AB" stop-opacity="0"></stop></radialGradient><linearGradient id="friend-_R_0_-eye" x2=".3" y2="1"><stop stop-color="#62605B"></stop><stop offset=".55" stop-color="#62605B"></stop><stop offset="1" stop-color="#B5B9AB"></stop></linearGradient><radialGradient id="friend-_R_0_-gold" cx="30%" cy="20%" r="85%"><stop stop-color="#FFF2B3"></stop><stop offset=".6" stop-color="#EEC779"></stop><stop offset="1" stop-color="#C9984B"></stop></radialGradient></defs><ellipse class="friend-ground-shadow" cx="50" cy="96" rx="27" ry="2.8" fill="#786654" opacity=".13"></ellipse><g data-body="full" stroke="#B5B9AB" stroke-width=".7" stroke-linejoin="round"><g class="friend-leg friend-leg-left"><path d="M34 77 Q32 83 28 88 Q24 96 36 96 H44 Q48 94 45 79" fill="url(#friend-_R_0_-fur)"></path><ellipse cx="36" cy="92" rx="7.3" ry="3.4" fill="#B5B9AB" stroke="none"></ellipse><path d="M32 90 v1.5 m4 -2 v1.5 m4 -1 v1.5" stroke="#E9D7C5" stroke-width=".6" stroke-linecap="round"></path></g><g class="friend-leg friend-leg-right"><path d="M56 79 Q53 95 58 96 H69 Q79 95 73 88 L66 77" fill="url(#friend-_R_0_-fur)"></path><ellipse cx="65" cy="92" rx="7.3" ry="3.4" fill="#B5B9AB" stroke="none"></ellipse><path d="M61 90 v1.5 m4 -2 v1.5 m4 -1 v1.5" stroke="#E9D7C5" stroke-width=".6" stroke-linecap="round"></path></g><path d="M35 53 Q50 48 65 53 Q74 62 73 78 Q73 89 50 90 Q27 89 27 78 Q26 64 35 53Z" fill="url(#friend-_R_0_-fur)"></path><path d="M32 58 Q22 56 26 65 Q18 70 26 77 Q20 86 32 87 Q35 94 44 88 Q51 95 58 88 Q70 94 73 83 Q83 79 74 71 Q81 62 69 59" fill="url(#friend-_R_0_-fur)"></path><ellipse cx="50" cy="73" rx="16" ry="13" fill="url(#friend-_R_0_-cream)" stroke="none"></ellipse><path d="M32 57 Q50 61 69 56 L63 65 L51 72 L37 64Z" fill="url(#friend-_R_0_-cloth)" stroke="#78A8BF"></path><path d="M37 60 Q51 64 63 60 L51 68Z" fill="none" stroke="#FFF9E6" stroke-width=".8" stroke-dasharray="1.2 1.6"></path><g><circle cx="50" cy="69" r="4.5" fill="url(#friend-_R_0_-gold)" stroke="#B99A59"></circle><path d="M47 70 h6 m-3 0 v2" stroke="#B99A59"></path><circle cx="49" cy="67" r="1" fill="#FFF8CF"></circle></g><g class="friend-arm friend-arm-left"><path d="M34 60 Q25 55 19 65 Q13 73 17 78 Q24 85 33 70" fill="url(#friend-_R_0_-fur)"></path><ellipse cx="22" cy="74" rx="3.2" ry="3.7" fill="url(#friend-_R_0_-cream)" stroke="none"></ellipse><path d="M20 65 Q16 72 18 74" stroke="#FFFFFF" stroke-width="1.5" stroke-linecap="round" fill="none"></path></g><g class="friend-arm friend-arm-right"><path d="M66 59 Q74 56 80 45 Q84 36 90 41 Q99 51 74 71 Q67 72 66 59Z" fill="url(#friend-_R_0_-fur)"></path><ellipse cx="87" cy="47" rx="3.3" ry="4" fill="url(#friend-_R_0_-cream)" stroke="none" transform="rotate(25 87 47)"></ellipse><path d="M83 42 q3 -3 5 0" fill="none" stroke="#FFFFFF" stroke-width="1.5" stroke-linecap="round"></path></g></g><g class="friend-head" stroke="#B5B9AB" stroke-width=".7" stroke-linejoin="round"><path d="M24 36 C6 29 7 45 24 47 M76 36 C94 29 93 45 76 47" fill="url(#friend-_R_0_-cream)"></path><path d="M24 28 C12 28 16 13 24 18 Q31 25 23 27 M76 28 C88 28 84 13 76 18 Q69 25 77 27" fill="url(#friend-_R_0_-gold)"></path><path d="M22 33 Q15 23 28 21 Q31 10 42 16 Q51 7 60 16 Q74 10 78 25 Q88 28 81 40 Q90 50 79 56 Q81 68 68 65 Q58 75 50 67 Q39 75 32 65 Q18 68 20 55 Q8 48 19 40Z" fill="url(#friend-_R_0_-fur)"></path><path d="M28 43 Q28 30 50 31 Q72 30 72 43 Q76 61 50 63 Q24 61 28 43" fill="url(#friend-_R_0_-cream)"></path><path d="M25 33 Q27 24 35 29 Q36 19 45 26 Q51 16 57 26 Q68 20 69 31 Q78 28 77 36" fill="url(#friend-_R_0_-fur)"></path><path d="M28 27 q2 -3 5 -1 m16 -6 q3 -2 5 1 m17 33 q5 0 5 -4" fill="none" stroke="#FFFFFF" stroke-width="1.3" stroke-linecap="round"></path><g stroke="none"><g stroke="none"><g><ellipse cx="33" cy="49" rx="7" ry="4.8" fill="url(#friend-_R_0_-blush)"></ellipse><path d="M31 48.5 l.5 1.5 m2 -1.5 l.5 1.5" stroke="#FFD6D3" stroke-width=".8" stroke-linecap="round"></path></g><g><ellipse cx="67" cy="49" rx="7" ry="4.8" fill="url(#friend-_R_0_-blush)"></ellipse><path d="M65 48.5 l.5 1.5 m2 -1.5 l.5 1.5" stroke="#FFD6D3" stroke-width=".8" stroke-linecap="round"></path></g></g><g class="friend-open-eyes" stroke="none"><g><ellipse cx="40" cy="42" rx="3.6" ry="4.8" fill="url(#friend-_R_0_-eye)"></ellipse><ellipse cx="39" cy="40.2" rx="1.25" ry="1.6" fill="#FFFDF8"></ellipse><circle cx="41.4" cy="44" r=".7" fill="#FFF0D7" opacity=".85"></circle></g><g><ellipse cx="60" cy="42" rx="3.6" ry="4.8" fill="url(#friend-_R_0_-eye)"></ellipse><ellipse cx="59" cy="40.2" rx="1.25" ry="1.6" fill="#FFFDF8"></ellipse><circle cx="61.4" cy="44" r=".7" fill="#FFF0D7" opacity=".85"></circle></g></g><g class="friend-rest-eyes" fill="none" stroke="#62605B" stroke-width="1.7" stroke-linecap="round"><path d="M36 42 q4 4 8 0 M56 42 q4 4 8 0"></path></g><g><path d="M46 48 Q50 45 54 48 Q53 52 50 52 Q47 52 46 48" fill="#BF7D96"></path><ellipse cx="48.6" cy="48.5" rx="1.4" ry=".7" fill="#FFFFFF" opacity=".6"></ellipse><path d="M50 52 v2 m-4 -.5 q4 4 8 0" fill="none" stroke="#BF7D96" stroke-width="1.3" stroke-linecap="round"></path></g></g></g></svg>
