<svg xmlns="http://www.w3.org/2000/svg" width="1024" height="1024" viewBox="0 0 100 100" class="character-artwork w-full h-full" aria-hidden="true" focusable="false"><style>.friend-rest-eyes{display:none}</style><defs><radialGradient id="friend-_R_0_-fur" cx="32%" cy="22%" r="80%"><stop stop-color="#FBE2BF"></stop><stop offset=".56" stop-color="#DAAA84"></stop><stop offset="1" stop-color="#B97F62"></stop></radialGradient><radialGradient id="friend-_R_0_-cream" cx="38%" cy="25%" r="80%"><stop stop-color="#FFFFFF"></stop><stop offset=".6" stop-color="#FFF0D6"></stop><stop offset="1" stop-color="#DAAA84"></stop></radialGradient><linearGradient id="friend-_R_0_-cloth" x1="0" y1="0" x2=".8" y2="1"><stop stop-color="#EEABC0"></stop><stop offset="1" stop-color="#CD7895"></stop></linearGradient><radialGradient id="friend-_R_0_-pink" cx="35%" cy="25%" r="85%"><stop stop-color="#FFE1DD"></stop><stop offset=".5" stop-color="#F3B0BC"></stop><stop offset="1" stop-color="#D7839F"></stop></radialGradient><radialGradient id="friend-_R_0_-blush"><stop stop-color="#EF99AB" stop-opacity=".75"></stop><stop offset="1" stop-color="#EF99AB" stop-opacity="0"></stop></radialGradient><linearGradient id="friend-_R_0_-eye" x2=".3" y2="1"><stop stop-color="#654139"></stop><stop offset=".55" stop-color="#654139"></stop><stop offset="1" stop-color="#A36F58"></stop></linearGradient><radialGradient id="friend-_R_0_-gold" cx="30%" cy="20%" r="85%"><stop stop-color="#FFF2B3"></stop><stop offset=".6" stop-color="#EEC779"></stop><stop offset="1" stop-color="#C9984B"></stop></radialGradient></defs><ellipse class="friend-ground-shadow" cx="50" cy="96" rx="27" ry="2.8" fill="#786654" opacity=".13"></ellipse><g data-body="full" stroke="#A36F58" stroke-width=".7" stroke-linejoin="round"><g class="friend-leg friend-leg-left"><path d="M34 77 Q32 83 28 88 Q24 96 36 96 H44 Q48 94 45 79" fill="url(#friend-_R_0_-fur)"></path><ellipse cx="36" cy="92" rx="7.3" ry="3.4" fill="url(#friend-_R_0_-cream)" stroke="none"></ellipse><path d="M32 90 v1.5 m4 -2 v1.5 m4 -1 v1.5" stroke="#B97F62" stroke-width=".6" stroke-linecap="round"></path></g><g class="friend-leg friend-leg-right"><path d="M56 79 Q53 95 58 96 H69 Q79 95 73 88 L66 77" fill="url(#friend-_R_0_-fur)"></path><ellipse cx="65" cy="92" rx="7.3" ry="3.4" fill="url(#friend-_R_0_-cream)" stroke="none"></ellipse><path d="M61 90 v1.5 m4 -2 v1.5 m4 -1 v1.5" stroke="#B97F62" stroke-width=".6" stroke-linecap="round"></path></g><path d="M35 53 Q50 48 65 53 Q74 62 73 78 Q73 89 50 90 Q27 89 27 78 Q26 64 35 53Z" fill="url(#friend-_R_0_-fur)"></path><ellipse cx="50" cy="73" rx="16" ry="13" fill="url(#friend-_R_0_-cream)" stroke="none"></ellipse><path d="M35 56 Q50 63 65 56 L71 83 Q50 93 29 83Z" fill="url(#friend-_R_0_-cloth)" stroke="#CD7895"></path><path d="M35 64 Q50 70 65 64 M33 81 Q50 87 67 81" fill="none" stroke="#FFF5E9" stroke-opacity=".75" stroke-width="1.2"></path><path d="M38 70 L36 81 M62 70 L64 81" stroke="#CD7895" opacity=".55" fill="none"></path><path d="M50 79 C40 73 45 69 50 73 C55 68 60 74 50 79" fill="#FFF4DD" stroke="none"></path><path d="M36 60 l2 4 m26 -4 l-2 4" stroke="#FFF4DD" stroke-width="2" stroke-linecap="round"></path><g class="friend-arm friend-arm-left"><path d="M34 60 Q25 55 19 65 Q13 73 17 78 Q24 85 33 70" fill="url(#friend-_R_0_-fur)"></path><ellipse cx="22" cy="74" rx="3.2" ry="3.7" fill="url(#friend-_R_0_-cream)" stroke="none"></ellipse><path d="M20 65 Q16 72 18 74" stroke="#FBE2BF" stroke-width="1.5" stroke-linecap="round" fill="none"></path></g><g class="friend-arm friend-arm-right"><path d="M66 59 Q74 56 80 45 Q84 36 90 41 Q99 51 74 71 Q67 72 66 59Z" fill="url(#friend-_R_0_-fur)"></path><ellipse cx="87" cy="47" rx="3.3" ry="4" fill="url(#friend-_R_0_-cream)" stroke="none" transform="rotate(25 87 47)"></ellipse><path d="M83 42 q3 -3 5 0" fill="none" stroke="#FBE2BF" stroke-width="1.5" stroke-linecap="round"></path></g></g><g class="friend-head" stroke="#A36F58" stroke-width=".7" stroke-linejoin="round"><circle cx="26" cy="23" r="11.5" fill="url(#friend-_R_0_-fur)"></circle><circle cx="75" cy="23" r="11.5" fill="url(#friend-_R_0_-fur)"></circle><circle cx="26" cy="23" r="6.7" fill="url(#friend-_R_0_-pink)" stroke="none"></circle><circle cx="75" cy="23" r="6.7" fill="url(#friend-_R_0_-pink)" stroke="none"></circle><path d="M19 43 C19 24 33 18 50 19 C67 18 81 25 81 43 C85 58 70 66 50 66 C30 66 15 58 19 43Z" fill="url(#friend-_R_0_-fur)"></path><path d="M26 35 Q30 25 43 24" fill="none" stroke="#FBE2BF" stroke-width="2.4" stroke-linecap="round" opacity=".8"></path><g stroke="none"><g stroke="none"><g><ellipse cx="29" cy="49" rx="7" ry="4.8" fill="url(#friend-_R_0_-blush)"></ellipse><path d="M27 48.5 l.5 1.5 m2 -1.5 l.5 1.5" stroke="#FFD6D3" stroke-width=".8" stroke-linecap="round"></path></g><g><ellipse cx="71" cy="49" rx="7" ry="4.8" fill="url(#friend-_R_0_-blush)"></ellipse><path d="M69 48.5 l.5 1.5 m2 -1.5 l.5 1.5" stroke="#FFD6D3" stroke-width=".8" stroke-linecap="round"></path></g></g><ellipse cx="50" cy="52" rx="12.8" ry="9.5" fill="url(#friend-_R_0_-cream)"></ellipse><g class="friend-open-eyes" stroke="none"><g><ellipse cx="38" cy="42" rx="3.6" ry="4.8" fill="url(#friend-_R_0_-eye)"></ellipse><ellipse cx="37" cy="40.2" rx="1.25" ry="1.6" fill="#FFFDF8"></ellipse><circle cx="39.4" cy="44" r=".7" fill="#FFF0D7" opacity=".85"></circle></g><g><ellipse cx="62" cy="42" rx="3.6" ry="4.8" fill="url(#friend-_R_0_-eye)"></ellipse><ellipse cx="61" cy="40.2" rx="1.25" ry="1.6" fill="#FFFDF8"></ellipse><circle cx="63.4" cy="44" r=".7" fill="#FFF0D7" opacity=".85"></circle></g></g><g class="friend-rest-eyes" fill="none" stroke="#654139" stroke-width="1.7" stroke-linecap="round"><path d="M34 42 q4 4 8 0 M58 42 q4 4 8 0"></path></g><g><path d="M46 48 Q50 45 54 48 Q53 52 50 52 Q47 52 46 48" fill="#654139"></path><ellipse cx="48.6" cy="48.5" rx="1.4" ry=".7" fill="#FFFFFF" opacity=".6"></ellipse><path d="M50 52 v2 m-4 -.5 q4 4 8 0" fill="none" stroke="#654139" stroke-width="1.3" stroke-linecap="round"></path></g></g><g transform="translate(71 20) rotate(16)" stroke="#C68199" stroke-width=".7" stroke-linejoin="round"><path d="M-1 2 L-6 10 L0 8 L3 10 L4 2" fill="url(#friend-_R_0_-pink)"></path><path d="M0 0 C-16 -13 -14 10 -1 5 C14 13 15 -10 0 0Z" fill="url(#friend-_R_0_-pink)"></path><path d="M-9 -3 L-4 0 M8 -1 L4 1" stroke="#FFE2DD" stroke-width="1.5" stroke-linecap="round"></path><ellipse cx="0" cy="2" rx="3" ry="3.4" fill="#E69DB6"></ellipse></g></g></svg>
