<svg xmlns="http://www.w3.org/2000/svg" width="1024" height="1024" viewBox="0 0 100 100" class="character-artwork w-full h-full" aria-hidden="true" focusable="false"><style>.friend-rest-eyes{display:none}</style><defs><radialGradient id="friend-_R_0_-fur" cx="32%" cy="22%" r="80%"><stop stop-color="#FFEAE1"></stop><stop offset=".56" stop-color="#F5B6C2"></stop><stop offset="1" stop-color="#DB8CA2"></stop></radialGradient><radialGradient id="friend-_R_0_-cream" cx="38%" cy="25%" r="80%"><stop stop-color="#FFFFFF"></stop><stop offset=".6" stop-color="#FFF2DA"></stop><stop offset="1" stop-color="#F5B6C2"></stop></radialGradient><linearGradient id="friend-_R_0_-cloth" x1="0" y1="0" x2=".8" y2="1"><stop stop-color="#F3CF8C"></stop><stop offset="1" stop-color="#D3A15E"></stop></linearGradient><radialGradient id="friend-_R_0_-pink" cx="35%" cy="25%" r="85%"><stop stop-color="#FFE1DD"></stop><stop offset=".5" stop-color="#F3B0BC"></stop><stop offset="1" stop-color="#D7839F"></stop></radialGradient><radialGradient id="friend-_R_0_-blush"><stop stop-color="#EF99AB" stop-opacity=".75"></stop><stop offset="1" stop-color="#EF99AB" stop-opacity="0"></stop></radialGradient><linearGradient id="friend-_R_0_-eye" x2=".3" y2="1"><stop stop-color="#78505C"></stop><stop offset=".55" stop-color="#78505C"></stop><stop offset="1" stop-color="#BE7C90"></stop></linearGradient><radialGradient id="friend-_R_0_-gold" cx="30%" cy="20%" r="85%"><stop stop-color="#FFF2B3"></stop><stop offset=".6" stop-color="#EEC779"></stop><stop offset="1" stop-color="#C9984B"></stop></radialGradient></defs><ellipse class="friend-ground-shadow" cx="50" cy="96" rx="27" ry="2.8" fill="#786654" opacity=".13"></ellipse><g data-body="full" stroke="#BE7C90" stroke-width=".7" stroke-linejoin="round"><path class="friend-tail" d="M74 77 C94 68 94 84 85 84 C79 84 84 73 89 78" fill="none" stroke="#DB8CA2" stroke-width="2.8" stroke-linecap="round"></path><g class="friend-leg friend-leg-left"><path d="M34 77 Q32 83 28 88 Q24 96 36 96 H44 Q48 94 45 79" fill="url(#friend-_R_0_-fur)"></path><ellipse cx="36" cy="92" rx="7.3" ry="3.4" fill="#BE7C90" stroke="none"></ellipse><path d="M32 90 v1.5 m4 -2 v1.5 m4 -1 v1.5" stroke="#E9D7C5" stroke-width=".6" stroke-linecap="round"></path></g><g class="friend-leg friend-leg-right"><path d="M56 79 Q53 95 58 96 H69 Q79 95 73 88 L66 77" fill="url(#friend-_R_0_-fur)"></path><ellipse cx="65" cy="92" rx="7.3" ry="3.4" fill="#BE7C90" stroke="none"></ellipse><path d="M61 90 v1.5 m4 -2 v1.5 m4 -1 v1.5" stroke="#E9D7C5" stroke-width=".6" stroke-linecap="round"></path></g><path d="M35 53 Q50 48 65 53 Q74 62 73 78 Q73 89 50 90 Q27 89 27 78 Q26 64 35 53Z" fill="url(#friend-_R_0_-fur)"></path><ellipse cx="50" cy="73" rx="16" ry="13" fill="url(#friend-_R_0_-cream)" stroke="none"></ellipse><path d="M32 57 Q50 61 69 56 L63 65 L51 72 L37 64Z" fill="url(#friend-_R_0_-cloth)" stroke="#D3A15E"></path><path d="M37 60 Q51 64 63 60 L51 68Z" fill="none" stroke="#FFF9E6" stroke-width=".8" stroke-dasharray="1.2 1.6"></path><circle cx="51" cy="67" r="2" fill="#FFF3CF" stroke="none"></circle><g class="friend-arm friend-arm-left"><path d="M34 60 Q25 55 19 65 Q13 73 17 78 Q24 85 33 70" fill="url(#friend-_R_0_-fur)"></path><ellipse cx="22" cy="74" rx="3.2" ry="3.7" fill="url(#friend-_R_0_-cream)" stroke="none"></ellipse><path d="M20 65 Q16 72 18 74" stroke="#FFEAE1" stroke-width="1.5" stroke-linecap="round" fill="none"></path></g><g class="friend-arm friend-arm-right"><path d="M66 59 Q74 56 80 45 Q84 36 90 41 Q99 51 74 71 Q67 72 66 59Z" fill="url(#friend-_R_0_-fur)"></path><ellipse cx="87" cy="47" rx="3.3" ry="4" fill="url(#friend-_R_0_-cream)" stroke="none" transform="rotate(25 87 47)"></ellipse><path d="M83 42 q3 -3 5 0" fill="none" stroke="#FFEAE1" stroke-width="1.5" stroke-linecap="round"></path></g></g><g class="friend-head" stroke="#BE7C90" stroke-width=".7" stroke-linejoin="round"><path d="M23 34 C16 31 12 15 21 15 Q32 16 36 25" fill="url(#friend-_R_0_-fur)"></path><path d="M65 24 Q76 11 84 16 Q91 20 77 34" fill="url(#friend-_R_0_-fur)"></path><path d="M21 21 L25 31 L30 25 M79 20 L70 25 L78 29" fill="url(#friend-_R_0_-pink)" stroke="none"></path><path d="M19 43 C19 24 33 18 50 19 C67 18 81 25 81 43 C85 58 70 66 50 66 C30 66 15 58 19 43Z" fill="url(#friend-_R_0_-fur)"></path><path d="M26 35 Q30 25 43 24" fill="none" stroke="#FFEAE1" stroke-width="2.4" stroke-linecap="round" opacity=".8"></path><g stroke="none"><g stroke="none"><g><ellipse cx="29" cy="49" rx="7" ry="4.8" fill="url(#friend-_R_0_-blush)"></ellipse><path d="M27 48.5 l.5 1.5 m2 -1.5 l.5 1.5" stroke="#FFD6D3" stroke-width=".8" stroke-linecap="round"></path></g><g><ellipse cx="71" cy="49" rx="7" ry="4.8" fill="url(#friend-_R_0_-blush)"></ellipse><path d="M69 48.5 l.5 1.5 m2 -1.5 l.5 1.5" stroke="#FFD6D3" stroke-width=".8" stroke-linecap="round"></path></g></g><g class="friend-open-eyes" stroke="none"><g><ellipse cx="38" cy="42" rx="3.6" ry="4.8" fill="url(#friend-_R_0_-eye)"></ellipse><ellipse cx="37" cy="40.2" rx="1.25" ry="1.6" fill="#FFFDF8"></ellipse><circle cx="39.4" cy="44" r=".7" fill="#FFF0D7" opacity=".85"></circle></g><g><ellipse cx="62" cy="42" rx="3.6" ry="4.8" fill="url(#friend-_R_0_-eye)"></ellipse><ellipse cx="61" cy="40.2" rx="1.25" ry="1.6" fill="#FFFDF8"></ellipse><circle cx="63.4" cy="44" r=".7" fill="#FFF0D7" opacity=".85"></circle></g></g><g class="friend-rest-eyes" fill="none" stroke="#78505C" stroke-width="1.7" stroke-linecap="round"><path d="M34 42 q4 4 8 0 M58 42 q4 4 8 0"></path></g><ellipse cx="50" cy="51" rx="11.5" ry="7.8" fill="url(#friend-_R_0_-pink)" stroke="#D892A7" stroke-width=".7"></ellipse><ellipse cx="46" cy="51" rx="1.8" ry="2.3" fill="#B57189"></ellipse><ellipse cx="54" cy="51" rx="1.8" ry="2.3" fill="#B57189"></ellipse><path d="M44 46 Q50 44 56 46" fill="none" stroke="#FFE0DB" stroke-width="1.4" stroke-linecap="round"></path><path d="M46 61 q4 3 8 0" fill="none" stroke="#78505C" stroke-width="1.2" stroke-linecap="round"></path></g><path d="M45 23 Q44 16 50 19 Q53 17 55 22" fill="none" stroke="#DB8CA2" stroke-width="1.4" stroke-linecap="round"></path></g></svg>
